<svg xmlns="http://www.w3.org/2000/svg" viewBox="2 44 224 380" width="224" height="380" fill="none"><defs> <radialGradient id="bodyG" cx="34%" cy="28%" r="68%"><stop offset="0%" stop-color="#FFFFFF"/><stop offset="60%" stop-color="#F7F2EA"/><stop offset="100%" stop-color="#ECE4D6"/></radialGradient> <radialGradient id="bellyG" cx="48%" cy="36%" r="60%"><stop offset="0%" stop-color="#FFFFFF"/><stop offset="100%" stop-color="#EDE6DA"/></radialGradient> <linearGradient id="bambA" x1="0" y1="0" x2="1" y2="0"><stop offset="0%" stop-color="#8ED84A"/><stop offset="38%" stop-color="#60AC2E"/><stop offset="100%" stop-color="#3C7215"/></linearGradient> <linearGradient id="bambB" x1="0" y1="0" x2="1" y2="0"><stop offset="0%" stop-color="#72BC36"/><stop offset="38%" stop-color="#4C9020"/><stop offset="100%" stop-color="#2C6010"/></linearGradient> <linearGradient id="bambNode" x1="0" y1="0" x2="0" y2="1"><stop offset="0%" stop-color="#3E8C1A"/><stop offset="100%" stop-color="#246010"/></linearGradient> </defs> <ellipse cx="100" cy="398" rx="92" ry="13" fill="rgba(56,201,122,0.16)"/> <ellipse cx="100" cy="392" rx="74" ry="9" fill="rgba(56,201,122,0.10)"/> <rect x="178" y="150" width="11" height="46" rx="3.2" fill="url(#bambA)"/> <rect x="175" y="196" width="17" height="6.5" rx="3" fill="url(#bambNode)"/> <rect x="175" y="196" width="17" height="2" rx="1" fill="rgba(255,255,255,0.22)"/> <line x1="178" y1="200" x2="161" y2="184" stroke-linecap="round" stroke="#2C6810" stroke-width="2.4"/> <g transform="rotate(-41 152 178)"><ellipse cx="152" cy="178" rx="16" ry="5.2" fill="#60AC2E"/></g> <rect x="178" y="202" width="11" height="46" rx="3.2" fill="url(#bambB)"/> <rect x="175" y="248" width="17" height="6.5" rx="3" fill="url(#bambNode)"/> <rect x="175" y="248" width="17" height="2" rx="1" fill="rgba(255,255,255,0.22)"/> <line x1="189" y1="252" x2="206" y2="237" stroke-linecap="round" stroke="#2C6810" stroke-width="2.4"/> <g transform="rotate(37 214 231)"><ellipse cx="214" cy="231" rx="16" ry="5.2" fill="#4C9020"/></g> <rect x="178" y="254" width="11" height="46" rx="3.2" fill="url(#bambA)"/> <rect x="175" y="300" width="17" height="6.5" rx="3" fill="url(#bambNode)"/> <rect x="178" y="306" width="11" height="58" rx="3.2" fill="url(#bambB)"/> <rect x="181" y="150" width="3.2" height="214" rx="1.6" fill="rgba(255,255,255,0.26)"/> <g transform="rotate(-8 52 356)"><ellipse cx="52" cy="356" rx="34" ry="27" fill="#0F0F0F"/></g> <g transform="rotate(8 148 356)"><ellipse cx="148" cy="356" rx="34" ry="27" fill="#0F0F0F"/></g> <ellipse cx="100" cy="372" rx="52" ry="22" fill="#1A1A1A"/> <g transform="rotate(6 118 368)"><ellipse cx="118" cy="368" rx="18" ry="12" fill="#262626"/></g> <g transform="rotate(-6 82 368)"><ellipse cx="82" cy="368" rx="18" ry="12" fill="#2A2A2A"/></g> <circle cx="118" cy="364" r="3.2" fill="rgba(255,170,150,0.16)"/><circle cx="82" cy="364" r="3.2" fill="rgba(255,170,150,0.16)"/> <ellipse cx="100" cy="288" rx="72" ry="78" fill="url(#bodyG)"/> <path d="M 40 250 C 24 262 20 296 34 326 C 42 344 60 350 72 342 C 78 336 76 326 70 318 C 58 300 54 276 60 258 C 58 248 48 244 40 250 Z" fill="#0F0F0F" /> <path d="M 160 250 C 176 262 180 296 166 326 C 158 344 140 350 128 342 C 122 336 124 326 130 318 C 142 300 146 276 140 258 C 142 248 152 244 160 250 Z" fill="#0F0F0F" /> <ellipse cx="100" cy="300" rx="42" ry="52" fill="url(#bellyG)"/> <g transform="rotate(-6 66 342)"><ellipse cx="66" cy="342" rx="17" ry="12" fill="#0F0F0F"/></g> <g transform="rotate(6 134 342)"><ellipse cx="134" cy="342" rx="17" ry="12" fill="#0F0F0F"/></g> <circle cx="44" cy="92" r="27" fill="#0F0F0F"/><circle cx="156" cy="92" r="27" fill="#0F0F0F"/> <circle cx="44" cy="92" r="17" fill="#1A1A1A"/><circle cx="156" cy="92" r="17" fill="#1A1A1A"/> <ellipse cx="40" cy="86" rx="6" ry="8" fill="rgba(255,255,255,0.05)"/><ellipse cx="152" cy="86" rx="6" ry="8" fill="rgba(255,255,255,0.05)"/> <ellipse cx="100" cy="152" rx="76" ry="76" fill="url(#bodyG)"/> <path d="M 58 118 Q 75 112 92 117" fill="none" stroke="#0F0F0F" stroke-width="4.5" stroke-linecap="round" /><path d="M 108 117 Q 125 112 142 118" fill="none" stroke="#0F0F0F" stroke-width="4.5" stroke-linecap="round" /> <g transform="rotate(-12 75 158)"><ellipse cx="75" cy="158" rx="29" ry="22" fill="#0F0F0F"/></g> <g transform="rotate(12 125 158)"><ellipse cx="125" cy="158" rx="29" ry="22" fill="#0F0F0F"/></g> <path d="M 60 162 Q 75 144 90 162" fill="none" stroke="#FFFFFF" stroke-width="5" stroke-linecap="round" /><path d="M 110 162 Q 125 144 140 162" fill="none" stroke="#FFFFFF" stroke-width="5" stroke-linecap="round" /> <ellipse cx="55" cy="183" rx="17" ry="10" fill="rgba(255,148,128,0.35)"/> <ellipse cx="145" cy="183" rx="17" ry="10" fill="rgba(255,148,128,0.35)"/> <ellipse cx="100" cy="191" rx="9" ry="6.5" fill="#0F0F0F"/> <ellipse cx="98" cy="188" rx="3.5" ry="2.4" fill="rgba(255,255,255,0.3)"/> <path d="M 80 205 Q 100 228 120 205" fill="none" stroke="#0F0F0F" stroke-width="4" stroke-linecap="round" /><ellipse cx="100" cy="214" rx="13" ry="8" fill="#0F0F0F"/><ellipse cx="100" cy="216" rx="9" ry="5.5" fill="#3A1414"/> <path d="M 168 148 L 170 155 L 177 157 L 170 159 L 168 166 L 166 159 L 159 157 L 166 155 Z" fill="#9DF0C0" /><circle cx="157" cy="141" r="2" fill="#9DF0C0"/></svg>